<?xml version="1.0" encoding="UTF-8" standalone="no"?>
<!-- Created with Inkscape (http://www.inkscape.org/) -->

<svg
   width="128.77466mm"
   height="63.490795mm"
   viewBox="0 0 128.77466 63.490795"
   version="1.1"
   id="svg1"
   xml:space="preserve"
   inkscape:version="1.3.2 (091e20e, 2023-11-25, custom)"
   sodipodi:docname="boilerplate.svg"
   xmlns:inkscape="http://www.inkscape.org/namespaces/inkscape"
   xmlns:sodipodi="http://sodipodi.sourceforge.net/DTD/sodipodi-0.dtd"
   xmlns="http://www.w3.org/2000/svg"
   xmlns:svg="http://www.w3.org/2000/svg"><sodipodi:namedview
     id="namedview1"
     pagecolor="#ffffff"
     bordercolor="#000000"
     borderopacity="0.25"
     inkscape:showpageshadow="2"
     inkscape:pageopacity="0.0"
     inkscape:pagecheckerboard="0"
     inkscape:deskcolor="#d1d1d1"
     inkscape:document-units="mm"
     inkscape:zoom="0.69964562"
     inkscape:cx="335.16968"
     inkscape:cy="606.73574"
     inkscape:window-width="1920"
     inkscape:window-height="974"
     inkscape:window-x="-11"
     inkscape:window-y="-11"
     inkscape:window-maximized="1"
     inkscape:current-layer="layer1"
     inkscape:export-bgcolor="#ffffff00" /><defs
     id="defs1" /><g
     inkscape:label="Camada 1"
     inkscape:groupmode="layer"
     id="layer1"
     transform="translate(-43.559373,-198.34057)"><g
       id="g9"
       transform="matrix(1.0002841,0,0,1.0002841,1.6176855,119.85685)"
       inkscape:export-filename="hero.svg"
       inkscape:export-xdpi="96"
       inkscape:export-ydpi="96"><rect
         class="cls-2"
         x="16.882711"
         y="112.33128"
         width="33.958115"
         height="25.764339"
         rx="4.1362896"
         transform="matrix(0.95408549,-0.29953442,0.29701984,0.95487131,0,0)"
         id="rect2990-1-3-5"
         style="fill:none;stroke:#141414;stroke-width:1.13314px;stroke-miterlimit:10" /><polygon
         class="cls-1"
         points="74.15,22.37 72.54,30.6 82.84,35.54 80.67,40.05 66.89,33.44 69.24,21.41 "
         id="polygon2924-9-5-0"
         transform="matrix(0.31476307,0,0,0.3162228,38.293786,78.333578)"
         style="fill:#f9b117" /><polygon
         class="cls-2"
         points="74.15,22.37 72.54,30.6 82.84,35.54 80.67,40.05 66.89,33.44 69.24,21.41 "
         id="polygon2926-1-7-9"
         transform="matrix(0.31476307,0,0,0.3162228,38.293786,78.333578)"
         style="fill:#536c53;stroke:#141414;stroke-width:2px;stroke-miterlimit:10" /><ellipse
         class="cls-3"
         cx="60.862236"
         cy="84.085716"
         id="circle2928-0-0-6"
         style="fill:#0e394f;stroke-width:0.315492"
         rx="1.9609739"
         ry="1.970068" /><ellipse
         class="cls-2"
         cx="60.862236"
         cy="84.085716"
         id="circle2930-7-8-3"
         style="fill:none;stroke:#141414;stroke-width:1.13315px;stroke-miterlimit:10"
         rx="1.9609739"
         ry="1.970068" /><path
         class="cls-4"
         d="m 58.495282,94.966919 a 6.9247874,6.9569014 0 0 1 11.466814,-3.573332 l 3.622913,3.383598 12.439445,11.554775 -16.18196,5.05956 -16.178833,5.05956 3.742536,-16.645957 z"
         id="path2932-5-1-8"
         style="fill:#b7c8b7;stroke-width:0.315492" /><path
         class="cls-5"
         d="m 74.079189,95.185115 -16.021423,4.996315 0.2455,-1.090965 a 15.653167,15.72576 0 0 0 4.793846,-1.720262 14.819045,14.887769 0 0 0 6.22286,-6.371886 7.0632833,7.0960395 0 0 1 1.259054,0.948678 z"
         id="path2934-8-9-5"
         style="fill:#374837;stroke-width:0.315492" /><path
         class="cls-8"
         d="m 60.190238,123.58361 5.282206,-1.64573 3.110332,10.07576 a 2.7699149,2.7827605 0 0 1 -1.825141,3.48216 v 0 a 2.7699149,2.7827605 0 0 1 -3.466084,-1.83359 l -3.110333,-10.07578 z"
         id="path2944-7-9-6"
         style="fill:#93ac93;stroke-width:0.315492" /><path
         class="cls-2"
         d="m 60.190238,123.58361 5.282206,-1.64573 3.110332,10.07576 a 2.7699149,2.7827605 0 0 1 -1.825141,3.48216 v 0 a 2.7699149,2.7827605 0 0 1 -3.466084,-1.83359 l -3.110333,-10.07578 z"
         id="path2948-0-7-1"
         style="fill:none;stroke:#141414;stroke-width:1.13315px;stroke-miterlimit:10" /><path
         class="cls-4"
         d="m 61.800074,119.15142 19.072442,-5.94227 3.822654,12.38329 a 5.6657351,5.6920102 0 0 1 -3.733247,7.12259 l -8.26752,2.57586 a 5.6657351,5.6920102 0 0 1 -7.089713,-3.75056 l -3.822655,-12.38328 z"
         id="path2954-4-8-1"
         style="fill:#b7c8b7;stroke-width:0.315492" /><rect
         class="cls-10"
         x="23.899843"
         y="137.83482"
         width="19.976711"
         height="2.4592192"
         transform="matrix(0.9547341,-0.29746058,0.29496007,0.95550958,0,0)"
         id="rect2956-8-2-5"
         style="fill:#536c53;stroke-width:0.315492" /><path
         class="cls-2"
         d="m 61.800074,119.15142 19.072442,-5.94227 3.822654,12.38329 a 5.6657351,5.6920102 0 0 1 -3.733247,7.12259 l -8.26752,2.57586 a 5.6657351,5.6920102 0 0 1 -7.089713,-3.75056 l -3.822655,-12.38328 z"
         id="path2958-0-5-9"
         style="fill:none;stroke:#141414;stroke-width:1.13315px;stroke-miterlimit:10" /><path
         class="cls-2"
         d="m 58.495282,94.966919 a 6.9247874,6.9569014 0 0 1 11.466814,-3.573332 l 3.622913,3.383598 12.124678,11.554775 -15.867193,5.05956 -15.864077,5.05956 3.42778,-16.645957 z"
         id="path2960-4-3-8"
         style="fill:none;stroke:#141414;stroke-width:1.13315px;stroke-miterlimit:10" /><rect
         class="cls-1"
         x="16.882711"
         y="112.33128"
         width="33.958115"
         height="25.764339"
         rx="4.1362896"
         transform="matrix(0.95408549,-0.29953442,0.29701984,0.95487131,0,0)"
         id="rect2962-2-4-4"
         style="fill:#b7c8b7;stroke-width:0.317317" /><path
         class="cls-11"
         d="m 87.519585,111.38836 0.390298,1.26488 a 4.1108057,4.1298698 0 0 1 -2.706968,5.16709 l -24.38154,7.58936 a 4.1139534,4.1330321 0 0 1 -5.146376,-2.71953 l -0.390308,-1.26489 a 4.1108057,4.1298698 0 0 0 5.143219,2.71952 l 24.384698,-7.58935 a 4.0919198,4.1108963 0 0 0 2.706977,-5.16708 z"
         id="path2964-9-9-8"
         style="opacity:0.5;fill:#1c241c;stroke-width:0.315492" /><rect
         class="cls-3"
         x="19.150425"
         y="114.54094"
         width="29.422762"
         height="21.338875"
         rx="2.4830406"
         transform="matrix(0.95408549,-0.29953442,0.29701984,0.95487131,0,0)"
         id="rect2966-6-0-1"
         style="fill:#0e394f;stroke-width:0.317317" /><path
         class="cls-12"
         d="m 84.907037,110.58833 0.689344,2.21355 a 2.4677424,2.4791867 0 0 1 -1.627336,3.10215 l -23.213767,7.23201 A 2.47089,2.4823488 0 0 1 57.6643,121.50115 l -0.686175,-2.21354 a 2.4677424,2.4791867 0 0 0 3.087809,1.6317 l 23.216935,-7.23516 a 2.4645949,2.4760245 0 0 0 1.624168,-3.09582 z"
         id="path2968-1-2-0"
         style="fill:#062538;stroke-width:0.315492" /><rect
         class="cls-13"
         x="29.310265"
         y="121.71169"
         width="1.9334332"
         height="5.9520683"
         rx="0.96671659"
         transform="matrix(0.9547341,-0.29746058,0.29496007,0.95550958,0,0)"
         id="rect2970-0-0-3"
         style="fill:#00d8ff;fill-opacity:1;stroke-width:0.315492" /><rect
         class="cls-13"
         x="36.529087"
         y="121.71207"
         width="1.9334332"
         height="5.9520683"
         rx="0.96671659"
         transform="matrix(0.9547341,-0.29746058,0.29496007,0.95550958,0,0)"
         id="rect2972-4-1-0"
         style="fill:#00d8ff;fill-opacity:1;stroke-width:0.315492" /><rect
         class="cls-14"
         x="116.30312"
         y="-25.923559"
         width="1.6310494"
         height="4.8713722"
         rx="0.8155247"
         transform="matrix(0.29512618,0.95545829,-0.95468198,0.29762782,0,0)"
         id="rect2974-2-9-4"
         style="fill:#185472;stroke-width:0.315492" /><ellipse
         class="cls-14"
         cx="60.65139"
         cy="103.80538"
         id="circle2976-2-6-4"
         style="fill:#185472;stroke-width:0.315492"
         rx="0.77431715"
         ry="0.77790809" /><rect
         class="cls-15"
         x="23.347193"
         y="112.74078"
         width="6.3356161"
         height="1.1411029"
         rx="0.56995344"
         transform="matrix(0.9547341,-0.29746058,0.29496007,0.95550958,0,0)"
         id="rect2978-2-2-4"
         style="fill:#536c53;fill-opacity:1;stroke-width:0.315492" /><ellipse
         class="cls-15"
         cx="62.624901"
         cy="99.141045"
         id="circle2980-0-1-4"
         style="fill:#6f916f;stroke-width:0.315492"
         rx="0.59175456"
         ry="0.59449887" /><rect
         class="cls-16"
         x="31.978296"
         y="108.10858"
         width="3.59606"
         height="0.72069651"
         rx="0.35897619"
         transform="matrix(0.9547341,-0.29746058,0.29496007,0.95550958,0,0)"
         id="rect2982-5-2-7"
         style="fill:#0e394f;fill-opacity:1;stroke-width:0.315492" /><rect
         class="cls-16"
         x="31.977568"
         y="106.95323"
         width="3.59606"
         height="0.72069651"
         rx="0.35897619"
         transform="matrix(0.9547341,-0.29746058,0.29496007,0.95550958,0,0)"
         id="rect2984-5-0-6"
         style="fill:#0e394f;fill-opacity:1;stroke-width:0.315492" /><line
         class="cls-28"
         x1="58.876144"
         y1="97.050797"
         x2="59.150002"
         y2="95.650009"
         id="line3116-2-7-3"
         style="fill:none;stroke:#dbe3db;stroke-width:0.315492;stroke-linecap:round;stroke-linejoin:round;stroke-opacity:1" /><ellipse
         class="cls-26"
         cx="59.23811"
         cy="95.118668"
         id="circle3118-9-3-1"
         style="fill:#dbe3db;fill-opacity:1;stroke-width:0.315492"
         rx="0.20144835"
         ry="0.20238258" /><path
         class="cls-29"
         d="m 72.288189,97.322775 5.432802,-1.694962 a 2.47089,2.4823488 0 0 1 3.065815,1.634883 l 1.321993,4.287984"
         id="path3120-0-1-7"
         style="fill:none;stroke:#141414;stroke-width:1.13315px;stroke-linecap:round;stroke-linejoin:round" /><line
         class="cls-29"
         x1="66.439964"
         y1="99.141045"
         x2="70.037598"
         y2="98.018501"
         id="line3122-2-1-5"
         style="fill:none;stroke:#141414;stroke-width:1.13315px;stroke-linecap:round;stroke-linejoin:round" /><path
         class="cls-29"
         d="m 79.63792,117.25113 -18.885789,5.88491 a 2.47089,2.4823488 0 0 1 -3.090969,-1.63489 l -4.793855,-15.53284 a 2.47089,2.4823488 0 0 1 1.627336,-3.10532 l 10.037779,-3.127443"
         id="path3124-8-9-9"
         style="fill:none;stroke:#141414;stroke-width:1.13315px;stroke-linecap:round;stroke-linejoin:round" /><rect
         class="cls-16"
         x="36.688393"
         y="145.73093"
         width="5.5011525"
         height="1.1031715"
         rx="0.55106002"
         transform="matrix(0.9547341,-0.29746058,0.29496007,0.95550958,0,0)"
         id="rect2986-2-0-6"
         style="fill:#0e394f;fill-opacity:1;stroke-width:0.315492" /><rect
         class="cls-16"
         x="36.222157"
         y="144.03833"
         width="5.5329995"
         height="1.1095454"
         rx="0.55425012"
         transform="matrix(0.95408549,-0.29953442,0.29701984,0.95487131,0,0)"
         id="rect2988-8-5-2"
         style="fill:#0e394f;fill-opacity:1;stroke-width:0.317317" /><path
         class="cls-17"
         d="m 170.66787,138.61386 c 0,1.8341 -37.36866,3.32034 -69.8774,3.32034 -32.508719,0 -58.860693,-1.48624 -58.860693,-3.32034 0,-1.83411 26.351974,-3.32035 58.860693,-3.32035 32.50874,0 69.8774,1.48624 69.8774,3.32035 z"
         id="path2992-8-6-1"
         style="opacity:0.2;fill:#0e394f;stroke-width:0.315492" /><path
         class="cls-8"
         d="m 83.069542,117.69498 5.291235,-1.64856 3.110333,10.07579 a 2.7699149,2.7827605 0 0 1 -1.825151,3.48213 v 0 a 2.7699149,2.7827605 0 0 1 -3.466085,-1.83358 z"
         id="path2946-8-4-1"
         style="fill:#fbd766;stroke-width:0.315492" /><path
         class="cls-2"
         d="m 83.069542,117.69498 5.291235,-1.64856 3.110333,10.07579 a 2.7699149,2.7827605 0 0 1 -1.825151,3.48213 v 0 a 2.7699149,2.7827605 0 0 1 -3.466085,-1.83358 z"
         id="path2950-8-7-8"
         style="fill:none;stroke:#141414;stroke-width:1.13315px;stroke-miterlimit:10" /><line
         class="cls-9"
         x1="65.80452"
         y1="126.4203"
         x2="66.84642"
         y2="129.79753"
         id="line2952-9-4-5"
         style="opacity:0.7;fill:none;stroke:#ffffff;stroke-width:1.5864px;stroke-linecap:round;stroke-linejoin:round" /><path
         class="cls-18"
         d="M 159.26086,79.028003 H 94.605383 a 1.9420882,1.9510947 0 0 0 -1.910602,1.615886 L 85.19082,130.17069 a 1.9389404,1.9479324 0 0 0 1.910623,2.27683 h 67.126377 a 1.9357928,1.9447702 0 0 0 1.88857,-1.58112 l 7.76521,-46.219131 a 4.7214461,4.743342 0 0 0 -4.62074,-5.619266 z"
         id="path2996-6-5-7"
         style="fill:#0e3964;stroke-width:0.315492" /><path
         class="cls-2"
         d="M 159.26086,79.028003 H 94.605383 a 1.9420882,1.9510947 0 0 0 -1.910602,1.615886 L 85.19082,130.17069 a 1.9389404,1.9479324 0 0 0 1.910623,2.27683 h 67.126377 a 1.9357928,1.9447702 0 0 0 1.88857,-1.58112 l 7.76521,-46.219131 a 4.7214461,4.743342 0 0 0 -4.62074,-5.619266 z"
         id="path2998-8-8-5"
         style="fill:#004455;stroke:#141414;stroke-width:1.13315px;stroke-miterlimit:10" /><path
         class="cls-6"
         d="M 159.3364,79.028003 H 91.901575 a 2.9650681,2.9788187 0 0 0 -2.924147,2.476002 l -7.749481,50.943515 h 71.183673 l 8.59303,-51.398852 a 1.696573,1.7044409 0 0 0 -1.66825,-2.020665 z"
         id="path3000-3-2-3"
         style="fill:#006680;stroke-width:0.315492" /><path
         class="cls-2"
         d="M 159.3364,79.028003 H 91.901575 a 2.9650681,2.9788187 0 0 0 -2.924147,2.476002 l -7.749481,50.943515 h 71.183673 l 8.59303,-51.398852 a 1.696573,1.7044409 0 0 0 -1.66825,-2.020665 z"
         id="path3002-8-6-8"
         style="fill:#0b2228;stroke:#116464;stroke-width:1.13315px;stroke-miterlimit:10;stroke-opacity:1" /><polygon
         class="cls-3"
         points="367.14,13 160.25,13 138.42,157.93 343.19,157.93 "
         id="polygon3004-3-0-8"
         transform="matrix(0.31476307,0,0,0.3162228,41.929777,78.711766)"
         style="fill:#0e394f" /><polygon
         class="cls-12"
         points="367.73,13.22 366.6,19.22 159.8,19.22 160.83,13.22 "
         id="polygon3006-3-6-3"
         transform="matrix(0.31476307,0,0,0.3162228,41.929777,78.711766)"
         style="fill:#062538" /><polygon
         class="cls-12"
         points="166.15,13 144.31,157.93 138.31,157.93 160.15,13 "
         id="polygon3008-3-6-1"
         transform="matrix(0.31476307,0,0,0.3162228,41.929777,78.711766)"
         style="fill:#062538" /><polygon
         class="cls-13"
         points="189.67,29.07 178.55,29.07 177.13,33.28 189.12,33.28 "
         id="polygon3010-8-4-8"
         transform="matrix(0.31476307,0,0,0.3162228,41.929777,78.711766)"
         style="fill:#00d8ff;fill-opacity:1" /><polygon
         class="cls-13"
         points="205.67,29.07 193.55,29.07 192.13,33.28 204.12,33.28 "
         id="polygon3012-0-6-9"
         transform="matrix(0.31476307,0,0,0.3162228,41.929777,78.711766)"
         style="fill:#00d8ff;fill-opacity:1" /><polygon
         class="cls-13"
         points="219.67,29.07 208.55,29.07 208.13,33.28 218.12,33.28 "
         id="polygon3014-4-2-6"
         transform="matrix(0.31476307,0,0,0.3162228,41.929777,78.711766)"
         style="fill:#00d8ff;fill-opacity:1" /><polygon
         class="cls-13"
         points="229.17,29.07 225.05,29.07 223.63,33.28 228.62,33.28 "
         id="polygon3016-7-8-4"
         transform="matrix(0.31476307,0,0,0.3162228,41.929777,78.711766)"
         style="fill:#00d8ff;fill-opacity:1" /><polygon
         class="cls-13"
         points="175.17,29.07 171.05,29.07 169.63,33.28 174.21,33.42 "
         id="polygon3018-6-9-3"
         transform="matrix(0.31476307,0,0,0.3162228,41.929777,78.711766)"
         style="fill:#00d8ff;fill-opacity:1" /><polygon
         class="cls-13"
         points="187.67,38.07 176.55,38.07 175.13,42.28 187.12,42.28 "
         id="polygon3020-8-6-3"
         transform="matrix(0.31476307,0,0,0.3162228,41.929777,78.711766)"
         style="fill:#00d8ff;fill-opacity:1" /><polygon
         class="cls-13"
         points="202.67,38.07 191.55,38.07 190.13,42.28 202.12,42.28 "
         id="polygon3022-9-0-3"
         transform="matrix(0.31476307,0,0,0.3162228,41.929777,78.711766)"
         style="fill:#00d8ff;fill-opacity:1" /><polygon
         class="cls-13"
         points="217.67,38.07 206.55,38.07 206.13,42.28 217.12,42.28 "
         id="polygon3024-0-7-8"
         transform="matrix(0.31476307,0,0,0.3162228,41.929777,78.711766)"
         style="fill:#00d8ff;fill-opacity:1" /><polygon
         class="cls-13"
         points="226.17,38.07 222.05,38.07 220.63,42.28 225.62,42.28 "
         id="polygon3026-6-0-6"
         transform="matrix(0.31476307,0,0,0.3162228,41.929777,78.711766)"
         style="fill:#00d8ff;fill-opacity:1" /><polygon
         class="cls-13"
         points="173.17,38.07 169.05,38.07 167.63,42.28 172.46,42.28 "
         id="polygon3028-8-1-0"
         transform="matrix(0.31476307,0,0,0.3162228,41.929777,78.711766)"
         style="fill:#00d8ff;fill-opacity:1" /><path
         class="cls-19"
         d="m 50.607807,132.13128 h 71.854103 v 6.64069 H 53.037773 a 4.3059589,4.325928 0 0 1 -4.309099,-4.32594 v -0.42688 a 1.8885784,1.8973368 0 0 1 1.879133,-1.88787 z"
         id="path3030-7-0-4"
         style="fill:#004455;stroke-width:0.315492" /><path
         class="cls-7"
         d="m 122.46191,136.24218 v 2.52979 H 53.034636 a 4.3091064,4.3290901 0 0 1 -4.305962,-4.32594 v -0.42688 a 1.8287734,1.8372545 0 0 1 0.188869,-0.82219 4.321697,4.341739 0 0 0 4.117114,3.04522 z"
         id="path3032-9-1-8"
         style="opacity:0.3;fill:#0e3964;stroke-width:0.315492" /><polygon
         class="cls-7"
         points="353.86,162.93 353.86,168.93 125.03,168.93 125.86,162.93 "
         id="polygon3034-0-3-8"
         transform="matrix(0.31476307,0,0,0.3162228,41.929777,78.711766)"
         style="opacity:0.3;fill:#0e3964" /><path
         class="cls-18"
         d="m 70.525997,132.13128 h 25.495829 v 0 a 3.4623937,3.4784508 0 0 1 -3.462408,3.47847 H 73.988415 a 3.4623937,3.4784508 0 0 1 -3.462418,-3.47847 z"
         id="path3036-3-7-8"
         style="fill:#0e3964;stroke-width:0.315492" /><path
         class="cls-2"
         d="m 70.525997,132.13128 h 25.495829 v 0 a 3.4623937,3.4784508 0 0 1 -3.462408,3.47847 H 73.988415 a 3.4623937,3.4784508 0 0 1 -3.462418,-3.47847 z"
         id="path3038-3-7-9"
         style="fill:none;stroke:#141414;stroke-width:1.13315px;stroke-miterlimit:10" /><polygon
         class="cls-12"
         points="367.05,13 343.1,157.93 138.37,157.93 364.24,13 "
         id="polygon3040-3-2-7"
         transform="matrix(0.31476307,0,0,0.3162228,41.929777,78.711766)"
         style="fill:#000000;fill-opacity:0" /><line
         class="cls-20"
         x1="159.13495"
         y1="128.65282"
         x2="157.71536"
         y2="129.60153"
         id="line3042-7-6-7"
         style="fill:none;stroke-width:0.315492" /><rect
         class="cls-21"
         x="69.953293"
         y="-173.48529"
         width="4.8945951"
         height="1.1080879"
         rx="0.55649143"
         transform="matrix(-0.15315469,0.98820223,-0.98798581,-0.15454465,0,0)"
         id="rect3044-3-4-6"
         style="fill:#062c4c;stroke-width:0.315492" /><rect
         class="cls-21"
         x="62.834091"
         y="-173.48441"
         width="4.8945951"
         height="1.1080879"
         rx="0.55649143"
         transform="matrix(-0.15315469,0.98820223,-0.98798581,-0.15454465,0,0)"
         id="rect3046-2-5-4"
         style="fill:#062c4c;stroke-width:0.315492" /><rect
         class="cls-22"
         x="79.654121"
         y="133.31393"
         width="4.8725324"
         height="1.1131042"
         rx="0.55398297"
         id="rect3048-6-2-3"
         style="fill:#141414;stroke-width:0.315492" /><rect
         class="cls-6"
         x="53.078728"
         y="132.15031"
         width="9.3264284"
         height="1.6823053"
         rx="0.83726978"
         id="rect3050-5-0-0"
         style="fill:#2c6e9b;stroke-width:0.315492" /><ellipse
         class="cls-6"
         cx="63.960064"
         cy="132.99144"
         id="circle3052-2-2-3"
         style="fill:#2c6e9b;stroke-width:0.315492"
         rx="0.83726978"
         ry="0.84115267" /><rect
         class="cls-23"
         x="-101.07526"
         y="101.34275"
         width="9.3686514"
         height="1.6747248"
         rx="0.84106028"
         transform="matrix(0.1536698,-0.98812226,0.98790439,0.15506423,0,0)"
         id="rect3054-6-9-0"
         style="fill:#4d9ac4;stroke-width:0.315492" /><ellipse
         class="cls-23"
         cx="87.088814"
         cy="104.91716"
         id="circle3056-5-0-9"
         style="fill:#4d9ac4;stroke-width:0.315492"
         rx="0.83726978"
         ry="0.84115267" /><rect
         class="cls-23"
         x="93.053528"
         y="79.973518"
         width="9.3264284"
         height="1.6823053"
         rx="0.83726978"
         id="rect3058-8-9-2"
         style="fill:#4d9ac4;stroke-width:0.315492" /><ellipse
         class="cls-23"
         cx="103.93488"
         cy="80.814682"
         id="circle3060-7-9-5"
         style="fill:#4d9ac4;stroke-width:0.315492"
         rx="0.83726978"
         ry="0.84115267" /><ellipse
         class="cls-24"
         cx="119.31425"
         cy="80.903229"
         id="circle3062-9-4-4"
         style="fill:#dbe3de;fill-opacity:1;stroke-width:0.315492"
         rx="0.94428915"
         ry="0.94866836" /><rect
         class="cls-25"
         x="64.457413"
         y="130.55022"
         width="7.2395506"
         height="1.5811139"
         id="rect3064-6-5-0"
         style="fill:#033156;stroke-width:0.315492" /><rect
         class="cls-25"
         x="53.528858"
         y="130.55022"
         width="7.2395506"
         height="1.5811139"
         id="rect3066-0-1-5"
         style="fill:#033156;stroke-width:0.315492" /><rect
         class="cls-25"
         x="75.382805"
         y="130.55022"
         width="7.2395506"
         height="1.5811139"
         id="rect3068-4-0-9"
         style="fill:#033156;stroke-width:0.315492" /><rect
         class="cls-25"
         x="86.311356"
         y="130.55022"
         width="7.2395506"
         height="1.5811139"
         id="rect3070-1-3-4"
         style="fill:#033156;stroke-width:0.315492" /><rect
         class="cls-25"
         x="97.236809"
         y="130.55022"
         width="7.2395506"
         height="1.5811139"
         id="rect3072-0-7-6"
         style="fill:#033156;stroke-width:0.315492" /><rect
         class="cls-25"
         x="108.16536"
         y="130.55022"
         width="7.2395506"
         height="1.5811139"
         id="rect3074-4-8-9"
         style="fill:#033156;stroke-width:0.315492" /><rect
         class="cls-25"
         x="119.09077"
         y="130.55022"
         width="7.2395506"
         height="1.5811139"
         id="rect3076-8-8-2"
         style="fill:#033156;stroke-width:0.315492" /><rect
         class="cls-25"
         x="141.03287"
         y="130.55022"
         width="7.2395506"
         height="1.5811139"
         id="rect3078-7-6-2"
         style="fill:#033156;stroke-width:0.315492" /><rect
         class="cls-25"
         x="130.06026"
         y="130.59764"
         width="7.2395506"
         height="1.5811139"
         id="rect3080-0-0-4"
         style="fill:#033156;stroke-width:0.315492" /><rect
         class="cls-2"
         x="64.457413"
         y="130.55022"
         width="7.2395506"
         height="1.5811139"
         id="rect3082-8-4-7"
         style="fill:none;stroke:#141414;stroke-width:1.13315px;stroke-miterlimit:10" /><rect
         class="cls-2"
         x="53.528858"
         y="130.55022"
         width="7.2395506"
         height="1.5811139"
         id="rect3084-6-6-7"
         style="fill:none;stroke:#141414;stroke-width:1.13315px;stroke-miterlimit:10" /><rect
         class="cls-2"
         x="75.382805"
         y="130.55022"
         width="7.2395506"
         height="1.5811139"
         id="rect3086-2-7-5"
         style="fill:none;stroke:#141414;stroke-width:1.13315px;stroke-miterlimit:10" /><rect
         class="cls-2"
         x="86.311356"
         y="130.55022"
         width="7.2395506"
         height="1.5811139"
         id="rect3088-4-6-4"
         style="fill:none;stroke:#141414;stroke-width:1.13315px;stroke-miterlimit:10" /><rect
         class="cls-2"
         x="97.236809"
         y="130.55022"
         width="7.2395506"
         height="1.5811139"
         id="rect3090-7-0-8"
         style="fill:none;stroke:#141414;stroke-width:1.13315px;stroke-miterlimit:10" /><rect
         class="cls-2"
         x="108.16536"
         y="130.55022"
         width="7.2395506"
         height="1.5811139"
         id="rect3092-9-9-1"
         style="fill:none;stroke:#141414;stroke-width:1.13315px;stroke-miterlimit:10" /><rect
         class="cls-2"
         x="119.09077"
         y="130.55022"
         width="7.2395506"
         height="1.5811139"
         id="rect3094-3-7-2"
         style="fill:none;stroke:#141414;stroke-width:1.13315px;stroke-miterlimit:10" /><rect
         class="cls-2"
         x="141.03287"
         y="130.55022"
         width="7.2395506"
         height="1.5811139"
         id="rect3096-9-5-8"
         style="fill:none;stroke:#141414;stroke-width:1.13315px;stroke-miterlimit:10" /><rect
         class="cls-2"
         x="130.06026"
         y="130.59764"
         width="7.2395506"
         height="1.5811139"
         id="rect3098-2-9-9"
         style="fill:none;stroke:#141414;stroke-width:1.13315px;stroke-miterlimit:10" /><polygon
         class="cls-2"
         points="367.04,13 160.15,13 138.32,157.93 343.09,157.93 "
         id="polygon3100-8-7-3"
         transform="matrix(0.31476307,0,0,0.3162228,41.929777,78.711766)"
         style="fill:none;stroke:#141414;stroke-width:2px;stroke-miterlimit:10" /><path
         class="cls-26"
         d="m 148.53689,88.062483 h -27.06964 a 2.6817814,2.6942183 0 0 0 -2.65659,2.295778 l -2.62826,17.518729 a 2.684929,2.6973804 0 0 0 2.65659,3.09901 h 26.82728 a 2.684929,2.6973804 0 0 0 2.65342,-2.25785 l 2.88323,-17.518749 a 2.684929,2.6973804 0 0 0 -2.66603,-3.136918 z"
         id="path3102-3-8-6"
         style="fill:#ffffff;stroke-width:0.315492" /><path
         class="cls-27"
         d="m 151.15257,91.202584 -2.88009,17.515566 a 2.6880766,2.7005427 0 0 1 -2.6503,2.25785 h -26.82409 a 2.6912242,2.7037049 0 0 1 -2.62829,-2.12505 l 32.25063,-20.788467 h 0.085 a 2.6880766,2.7005427 0 0 1 2.64715,3.140101 z"
         id="path3104-0-5-8"
         style="fill:#f4f3f2;stroke-width:0.315492" /><path
         class="cls-2"
         d="m 50.607807,132.13128 h 71.854103 v 6.64069 H 53.037773 a 4.3059589,4.325928 0 0 1 -4.309099,-4.32594 v -0.42688 a 1.8885784,1.8973368 0 0 1 1.879133,-1.88787 z"
         id="path3106-1-3-0"
         style="fill:none;stroke:#141414;stroke-width:1.13315px;stroke-miterlimit:10" /><rect
         class="cls-18"
         x="115.85186"
         y="132.13126"
         width="43.12254"
         height="6.6406789"
         rx="3.3050122"
         id="rect3108-7-3-2"
         style="fill:#004455;stroke-width:0.315492" /><rect
         class="cls-22"
         x="150.32471"
         y="134.89507"
         width="4.8725324"
         height="1.1131042"
         rx="0.55398297"
         id="rect3110-8-8-1"
         style="fill:#141414;stroke-width:0.315492" /><rect
         class="cls-22"
         x="143.23619"
         y="134.89507"
         width="4.8725324"
         height="1.1131042"
         rx="0.55398297"
         id="rect3112-9-3-0"
         style="fill:#141414;stroke-width:0.315492" /><rect
         class="cls-2"
         x="115.85186"
         y="132.13126"
         width="43.12254"
         height="6.6406789"
         rx="3.3050122"
         id="rect3114-1-7-5"
         style="fill:none;stroke:#141414;stroke-width:1.13315px;stroke-miterlimit:10" /><polygon
         class="cls-8"
         points="265.39,76.4 254.27,76.4 252.85,80.62 264.84,80.62 "
         id="polygon3126-5-9-1"
         transform="matrix(0.31476307,0,0,0.3162228,41.929777,78.711766)"
         style="fill:#00d8ff;fill-opacity:1" /><polygon
         class="cls-8"
         points="281.39,76.4 269.27,76.4 267.86,80.62 279.84,80.62 "
         id="polygon3128-4-3-1"
         transform="matrix(0.31476307,0,0,0.3162228,41.929777,78.711766)"
         style="fill:#00d8ff;fill-opacity:1" /><polygon
         class="cls-8"
         points="295.39,76.4 284.27,76.4 283.86,80.62 293.84,80.62 "
         id="polygon3130-9-7-0"
         transform="matrix(0.31476307,0,0,0.3162228,41.929777,78.711766)"
         style="fill:#00d8ff;fill-opacity:1" /><polygon
         class="cls-8"
         points="304.89,76.4 300.77,76.4 299.36,80.62 304.34,80.62 "
         id="polygon3132-2-8-8"
         transform="matrix(0.31476307,0,0,0.3162228,41.929777,78.711766)"
         style="fill:#00d8ff;fill-opacity:1" /><polygon
         class="cls-8"
         points="250.89,76.4 246.77,76.4 245.35,80.62 249.93,80.75 "
         id="polygon3134-5-7-5"
         transform="matrix(0.31476307,0,0,0.3162228,41.929777,78.711766)"
         style="fill:#00d8ff;fill-opacity:1" /><polygon
         class="cls-8"
         points="263.39,85.4 252.27,85.4 250.85,89.62 262.84,89.62 "
         id="polygon3136-7-4-0"
         transform="matrix(0.31476307,0,0,0.3162228,41.929777,78.711766)"
         style="fill:#00d8ff;fill-opacity:1" /><polygon
         class="cls-8"
         points="278.39,85.4 267.27,85.4 265.86,89.62 277.84,89.62 "
         id="polygon3138-4-1-6"
         transform="matrix(0.31476307,0,0,0.3162228,41.929777,78.711766)"
         style="fill:#00d8ff;fill-opacity:1" /><polygon
         class="cls-8"
         points="293.39,85.4 282.27,85.4 281.86,89.62 292.84,89.62 "
         id="polygon3140-9-9-4"
         transform="matrix(0.31476307,0,0,0.3162228,41.929777,78.711766)"
         style="fill:#00d8ff;fill-opacity:1" /><polygon
         class="cls-8"
         points="301.89,85.4 297.77,85.4 296.36,89.62 301.34,89.62 "
         id="polygon3142-9-0-6"
         transform="matrix(0.31476307,0,0,0.3162228,41.929777,78.711766)"
         style="fill:#00d8ff;fill-opacity:1" /><polygon
         class="cls-8"
         points="248.89,85.4 244.77,85.4 243.35,89.62 248.18,89.62 "
         id="polygon3144-4-9-2"
         transform="matrix(0.31476307,0,0,0.3162228,41.929777,78.711766)"
         style="fill:#00d8ff;fill-opacity:1" /><path
         class="cls-30"
         d="m 148.53689,88.062483 h -27.06964 a 2.6817814,2.6942183 0 0 0 -2.65659,2.295778 l -2.62826,17.518729 a 2.684929,2.6973804 0 0 0 2.65659,3.09901 h 26.82728 a 2.684929,2.6973804 0 0 0 2.65342,-2.25785 l 2.88323,-17.518749 a 2.684929,2.6973804 0 0 0 -2.66603,-3.136918 z"
         id="path3146-5-8-5"
         style="fill:none;stroke:#141414;stroke-width:0.73654px;stroke-miterlimit:10" /><text
         xml:space="preserve"
         style="font-style:normal;font-variant:normal;font-weight:normal;font-stretch:normal;font-size:2.17071px;line-height:1.25;font-family:sans-serif;-inkscape-font-specification:'sans-serif, Normal';font-variant-ligatures:normal;font-variant-caps:normal;font-variant-numeric:normal;font-variant-east-asian:normal;fill:#000000;fill-opacity:1;stroke:none;stroke-width:0.162803"
         x="119.82015"
         y="97.063622"
         id="text3993-8-8"
         transform="matrix(0.99767114,-0.00604196,0.00601408,1.0022979,0,0)"><tspan
           sodipodi:role="line"
           id="tspan3991-5-6"
           x="119.82015"
           y="97.063622"
           style="fill:#000000;fill-opacity:1;stroke-width:0.162803">console.log('Hello World')</tspan></text></g></g></svg>
